<?xml version="1.0" encoding="UTF-8"?>
<svg width="178px" height="247px" viewBox="0 0 178 247" version="1.1" xmlns="http://www.w3.org/2000/svg" xmlns:xlink="http://www.w3.org/1999/xlink">
    <!-- Generator: Sketch 58 (84663) - https://sketch.com -->
    <title>icon</title>
    <desc>Created with Sketch.</desc>
    <g id="Page-1" stroke="none" stroke-width="1" fill="none" fill-rule="evenodd">
        <g id="icon" fill-rule="nonzero">
            <g id="filter">
                <path d="M0,104 L0,122.691233 L72.386549,184.697405 C73.3740152,185.519103 74.0105589,186.686063 74.1667137,187.960917 L74.1667137,247 L103.833286,230.682438 L103.833286,187.960349 C103.98944,186.685495 104.625984,185.518535 105.61345,184.696837 L178,122.690666 L178,104 L0,104 L0,104 Z" id="Path" fill="#1D3557"></path>
                <circle id="Oval" fill="#E63946" cx="22" cy="63" r="15"></circle>
                <path d="M120,59.9977619 C119.998881,70.491151 128.504373,78.9988811 138.997762,79 C149.491151,79.0011189 157.998881,70.495627 158,60.0022381 C158.001119,49.5088488 149.495628,41.0011189 139.002238,41 C128.621868,40.9988811 120.161695,49.3286905 120.002238,59.707942 C120.000559,59.804735 120,59.9009687 120,59.9977619 Z" id="Path" fill="#0073AA"></path>
                <circle id="Oval" fill="#E9C46A" cx="80" cy="37" r="9"></circle>
                <path d="M116,18 C120.970672,18 125,13.9706718 125,9 C125,4.02932825 120.970672,0 116,0 C116,0 116,0 116,0 C111.029328,0 107,4.02932825 107,9 C107,13.9706718 111.029884,18 116,18 Z" id="Path" fill="#2A9D8F"></path>
            </g>
        </g>
    </g>
</svg>